<svg width="416" height="418" viewBox="0 0 416 418" fill="none" xmlns="http://www.w3.org/2000/svg">
<rect x="97" y="61" width="61" height="217" transform="rotate(-90 97 61)" fill="#7F3DFF"/>
<rect x="147" width="61" height="229" fill="#7F3DFF"/>
<path opacity="0.991" fill-rule="evenodd" clip-rule="evenodd" d="M237.772 128.21C273.345 126.193 302.562 138.678 325.421 165.664C347.756 195.82 352.753 228.695 340.411 264.291C328.081 294.21 306.498 314.115 275.663 324.008C239.268 333.521 206.928 326.031 178.644 301.536C153.023 276.178 142.96 245.591 148.456 209.776C155.803 175.113 175.581 150.491 207.792 135.909C217.468 131.897 227.461 129.33 237.772 128.21ZM218.201 177.732C236.825 177.531 255.424 177.739 273.997 178.356C277.693 180.141 278.873 182.985 277.537 186.887C276.612 188.505 275.293 189.684 273.581 190.425C269.964 190.495 266.356 190.703 262.755 191.049C264.346 193.534 265.595 196.17 266.502 198.956C269.171 198.824 271.809 199.032 274.414 199.58C279.045 202.994 279.323 206.739 275.247 210.816C272.998 211.764 270.639 212.111 268.168 211.856C266.756 224.462 260.232 233.271 248.598 238.282C244.152 239.826 239.571 240.658 234.857 240.779C243.532 250.003 252.207 259.228 260.881 268.453C263.193 273.953 261.458 277.282 255.676 278.44C254.345 278.389 253.096 278.043 251.929 277.4C239.216 264.278 226.654 251.031 214.246 237.658C212.138 233.153 213.318 229.893 217.785 227.878C224.864 227.74 231.942 227.601 239.021 227.462C248.039 226.009 253.452 220.807 255.26 211.856C242.906 211.926 230.554 211.856 218.201 211.648C215.263 210.721 213.598 208.709 213.205 205.614C213.549 202.849 214.936 200.838 217.369 199.58C229.004 199.105 240.663 198.758 252.345 198.54C249.737 194.878 246.266 192.45 241.936 191.257C233.901 190.734 225.851 190.457 217.785 190.425C213.993 188.989 212.536 186.284 213.413 182.31C214.428 180.115 216.024 178.589 218.201 177.732Z" fill="#7F3DFF"/>
<path d="M25.56 372.46C27.08 372.7 28.46 373.32 29.7 374.32C30.98 375.32 31.98 376.56 32.7 378.04C33.46 379.52 33.84 381.1 33.84 382.78C33.84 384.9 33.3 386.82 32.22 388.54C31.14 390.22 29.56 391.56 27.48 392.56C25.44 393.52 23.02 394 20.22 394H4.62V352.18H19.62C22.46 352.18 24.88 352.66 26.88 353.62C28.88 354.54 30.38 355.8 31.38 357.4C32.38 359 32.88 360.8 32.88 362.8C32.88 365.28 32.2 367.34 30.84 368.98C29.52 370.58 27.76 371.74 25.56 372.46ZM10.08 370.24H19.26C21.82 370.24 23.8 369.64 25.2 368.44C26.6 367.24 27.3 365.58 27.3 363.46C27.3 361.34 26.6 359.68 25.2 358.48C23.8 357.28 21.78 356.68 19.14 356.68H10.08V370.24ZM19.74 389.5C22.46 389.5 24.58 388.86 26.1 387.58C27.62 386.3 28.38 384.52 28.38 382.24C28.38 379.92 27.58 378.1 25.98 376.78C24.38 375.42 22.24 374.74 19.56 374.74H10.08V389.5H19.74ZM70.5769 361.12V394H65.1169V389.14C64.0769 390.82 62.6169 392.14 60.7369 393.1C58.8969 394.02 56.8569 394.48 54.6169 394.48C52.0569 394.48 49.7569 393.96 47.7169 392.92C45.6769 391.84 44.0569 390.24 42.8569 388.12C41.6969 386 41.1169 383.42 41.1169 380.38V361.12H46.5169V379.66C46.5169 382.9 47.3369 385.4 48.9769 387.16C50.6169 388.88 52.8569 389.74 55.6969 389.74C58.6169 389.74 60.9169 388.84 62.5969 387.04C64.2769 385.24 65.1169 382.62 65.1169 379.18V361.12H70.5769ZM77.7558 377.44C77.7558 374.08 78.4358 371.14 79.7958 368.62C81.1558 366.06 83.0158 364.08 85.3758 362.68C87.7758 361.28 90.4558 360.58 93.4158 360.58C95.9758 360.58 98.3558 361.18 100.556 362.38C102.756 363.54 104.436 365.08 105.596 367V349.6H111.116V394H105.596V387.82C104.516 389.78 102.916 391.4 100.796 392.68C98.6758 393.92 96.1958 394.54 93.3558 394.54C90.4358 394.54 87.7758 393.82 85.3758 392.38C83.0158 390.94 81.1558 388.92 79.7958 386.32C78.4358 383.72 77.7558 380.76 77.7558 377.44ZM105.596 377.5C105.596 375.02 105.096 372.86 104.096 371.02C103.096 369.18 101.736 367.78 100.016 366.82C98.3358 365.82 96.4758 365.32 94.4358 365.32C92.3958 365.32 90.5358 365.8 88.8558 366.76C87.1758 367.72 85.8358 369.12 84.8358 370.96C83.8358 372.8 83.3358 374.96 83.3358 377.44C83.3358 379.96 83.8358 382.16 84.8358 384.04C85.8358 385.88 87.1758 387.3 88.8558 388.3C90.5358 389.26 92.3958 389.74 94.4358 389.74C96.4758 389.74 98.3358 389.26 100.016 388.3C101.736 387.3 103.096 385.88 104.096 384.04C105.096 382.16 105.596 379.98 105.596 377.5ZM133.903 360.58C136.743 360.58 139.223 361.2 141.343 362.44C143.503 363.68 145.103 365.24 146.143 367.12V361.12H151.663V394.72C151.663 397.72 151.023 400.38 149.743 402.7C148.463 405.06 146.623 406.9 144.223 408.22C141.863 409.54 139.103 410.2 135.943 410.2C131.623 410.2 128.023 409.18 125.143 407.14C122.263 405.1 120.563 402.32 120.043 398.8H125.443C126.043 400.8 127.283 402.4 129.163 403.6C131.043 404.84 133.303 405.46 135.943 405.46C138.943 405.46 141.383 404.52 143.263 402.64C145.183 400.76 146.143 398.12 146.143 394.72V387.82C145.063 389.74 143.463 391.34 141.343 392.62C139.223 393.9 136.743 394.54 133.903 394.54C130.983 394.54 128.323 393.82 125.923 392.38C123.563 390.94 121.703 388.92 120.343 386.32C118.983 383.72 118.303 380.76 118.303 377.44C118.303 374.08 118.983 371.14 120.343 368.62C121.703 366.06 123.563 364.08 125.923 362.68C128.323 361.28 130.983 360.58 133.903 360.58ZM146.143 377.5C146.143 375.02 145.643 372.86 144.643 371.02C143.643 369.18 142.283 367.78 140.563 366.82C138.883 365.82 137.023 365.32 134.983 365.32C132.943 365.32 131.083 365.8 129.403 366.76C127.723 367.72 126.383 369.12 125.383 370.96C124.383 372.8 123.883 374.96 123.883 377.44C123.883 379.96 124.383 382.16 125.383 384.04C126.383 385.88 127.723 387.3 129.403 388.3C131.083 389.26 132.943 389.74 134.983 389.74C137.023 389.74 138.883 389.26 140.563 388.3C142.283 387.3 143.643 385.88 144.643 384.04C145.643 382.16 146.143 379.98 146.143 377.5ZM190.89 376.3C190.89 377.34 190.83 378.44 190.71 379.6H164.43C164.63 382.84 165.73 385.38 167.73 387.22C169.77 389.02 172.23 389.92 175.11 389.92C177.47 389.92 179.43 389.38 180.99 388.3C182.59 387.18 183.71 385.7 184.35 383.86H190.23C189.35 387.02 187.59 389.6 184.95 391.6C182.31 393.56 179.03 394.54 175.11 394.54C171.99 394.54 169.19 393.84 166.71 392.44C164.27 391.04 162.35 389.06 160.95 386.5C159.55 383.9 158.85 380.9 158.85 377.5C158.85 374.1 159.53 371.12 160.89 368.56C162.25 366 164.15 364.04 166.59 362.68C169.07 361.28 171.91 360.58 175.11 360.58C178.23 360.58 180.99 361.26 183.39 362.62C185.79 363.98 187.63 365.86 188.91 368.26C190.23 370.62 190.89 373.3 190.89 376.3ZM185.25 375.16C185.25 373.08 184.79 371.3 183.87 369.82C182.95 368.3 181.69 367.16 180.09 366.4C178.53 365.6 176.79 365.2 174.87 365.2C172.11 365.2 169.75 366.08 167.79 367.84C165.87 369.6 164.77 372.04 164.49 375.16H185.25ZM223.837 352.18V356.62H212.437V394H206.977V356.62H195.517V352.18H223.837ZM236.018 366.46C236.978 364.58 238.338 363.12 240.098 362.08C241.898 361.04 244.078 360.52 246.638 360.52V366.16H245.198C239.078 366.16 236.018 369.48 236.018 376.12V394H230.558V361.12H236.018V366.46ZM250.9 377.44C250.9 374.08 251.58 371.14 252.94 368.62C254.3 366.06 256.16 364.08 258.52 362.68C260.92 361.28 263.58 360.58 266.5 360.58C269.38 360.58 271.88 361.2 274 362.44C276.12 363.68 277.7 365.24 278.74 367.12V361.12H284.26V394H278.74V387.88C277.66 389.8 276.04 391.4 273.88 392.68C271.76 393.92 269.28 394.54 266.44 394.54C263.52 394.54 260.88 393.82 258.52 392.38C256.16 390.94 254.3 388.92 252.94 386.32C251.58 383.72 250.9 380.76 250.9 377.44ZM278.74 377.5C278.74 375.02 278.24 372.86 277.24 371.02C276.24 369.18 274.88 367.78 273.16 366.82C271.48 365.82 269.62 365.32 267.58 365.32C265.54 365.32 263.68 365.8 262 366.76C260.32 367.72 258.98 369.12 257.98 370.96C256.98 372.8 256.48 374.96 256.48 377.44C256.48 379.96 256.98 382.16 257.98 384.04C258.98 385.88 260.32 387.3 262 388.3C263.68 389.26 265.54 389.74 267.58 389.74C269.62 389.74 271.48 389.26 273.16 388.3C274.88 387.3 276.24 385.88 277.24 384.04C278.24 382.16 278.74 379.98 278.74 377.5ZM291.447 377.5C291.447 374.1 292.127 371.14 293.487 368.62C294.847 366.06 296.727 364.08 299.127 362.68C301.567 361.28 304.347 360.58 307.467 360.58C311.507 360.58 314.827 361.56 317.427 363.52C320.067 365.48 321.807 368.2 322.647 371.68H316.767C316.207 369.68 315.107 368.1 313.467 366.94C311.867 365.78 309.867 365.2 307.467 365.2C304.347 365.2 301.827 366.28 299.907 368.44C297.987 370.56 297.027 373.58 297.027 377.5C297.027 381.46 297.987 384.52 299.907 386.68C301.827 388.84 304.347 389.92 307.467 389.92C309.867 389.92 311.867 389.36 313.467 388.24C315.067 387.12 316.167 385.52 316.767 383.44H322.647C321.767 386.8 320.007 389.5 317.367 391.54C314.727 393.54 311.427 394.54 307.467 394.54C304.347 394.54 301.567 393.84 299.127 392.44C296.727 391.04 294.847 389.06 293.487 386.5C292.127 383.94 291.447 380.94 291.447 377.5ZM348.293 394L335.393 379.48V394H329.933V349.6H335.393V375.7L348.053 361.12H355.673L340.193 377.5L355.733 394H348.293ZM390.811 376.3C390.811 377.34 390.751 378.44 390.631 379.6H364.351C364.551 382.84 365.651 385.38 367.651 387.22C369.691 389.02 372.151 389.92 375.031 389.92C377.391 389.92 379.351 389.38 380.911 388.3C382.511 387.18 383.631 385.7 384.271 383.86H390.151C389.271 387.02 387.511 389.6 384.871 391.6C382.231 393.56 378.951 394.54 375.031 394.54C371.911 394.54 369.111 393.84 366.631 392.44C364.191 391.04 362.271 389.06 360.871 386.5C359.471 383.9 358.771 380.9 358.771 377.5C358.771 374.1 359.451 371.12 360.811 368.56C362.171 366 364.071 364.04 366.511 362.68C368.991 361.28 371.831 360.58 375.031 360.58C378.151 360.58 380.911 361.26 383.311 362.62C385.711 363.98 387.551 365.86 388.831 368.26C390.151 370.62 390.811 373.3 390.811 376.3ZM385.171 375.16C385.171 373.08 384.711 371.3 383.791 369.82C382.871 368.3 381.611 367.16 380.011 366.4C378.451 365.6 376.711 365.2 374.791 365.2C372.031 365.2 369.671 366.08 367.711 367.84C365.791 369.6 364.691 372.04 364.411 375.16H385.171ZM403.478 366.46C404.438 364.58 405.798 363.12 407.558 362.08C409.358 361.04 411.538 360.52 414.098 360.52V366.16H412.658C406.538 366.16 403.478 369.48 403.478 376.12V394H398.018V361.12H403.478V366.46Z" fill="#7F3DFF"/>
</svg>
